<svg preserveAspectRatio="none" overflow="visible" style="display: block;" width="2524.45" height="2156.29" viewBox="0 0 2524.45 2156.29" fill="none" xmlns="http://www.w3.org/2000/svg">
<path id="Vector 48" opacity="0.3" d="M1576.82 1960C959.663 2454.09 -292.519 1916.17 214.322 1370C366.759 1205.73 100.501 724.918 13.8225 655C-98.106 564.715 587.844 462.319 643.12 328.653C698.397 194.987 609.765 4.28868 795.862 1.52318C981.958 -1.24232 982.745 243.135 1163.29 252.007C1369.65 262.149 1292.82 62.1605 1519.45 72.3006C1699.23 80.3443 2041.92 180.544 2345.57 274.853C2823.7 361.505 1971.1 841.855 1873.32 947.5C1673.58 1163.32 1927.57 1211.69 2032.6 1436.61C2137.62 1661.54 2287.86 1842.96 2153.82 1836.29C1968.65 1827.07 3012.66 1599.34 2224.82 1900.5" stroke="#225FFD" stroke-width="3" stroke-dasharray="5.7 5.7"/>
</svg>
