<svg preserveAspectRatio="none" overflow="visible" style="display: block;" width="130" height="65.974" viewBox="0 0 130 65.974" fill="none" xmlns="http://www.w3.org/2000/svg">
<g id="Group 2131330463">
<g id="Vector">
<path d="M47.8357 35.4765C47.7761 35.575 47.7544 35.6678 47.7074 35.6849C47.3032 35.8155 46.9035 35.9724 46.489 36.0456C46.126 36.1086 45.8546 35.8842 45.676 35.5727C45.3703 35.0345 45.4893 34.3601 45.9462 34.0658C46.0447 34.0028 46.1787 33.9925 46.3585 33.9398C46.1901 34.4791 46.1146 34.9154 46.5257 35.2658C46.8967 35.5807 47.3478 35.488 47.8357 35.4765Z" fill="white"/>
<path d="M44.8159 7.68937C40.066 2.93834 33.5023 0 26.2527 0C11.7533 0 0 11.7533 0 26.2515V65.974H28.3024C26.3088 64.3995 24.3781 62.7551 22.5356 61.0054C19.6145 58.2308 17.046 55.1665 14.8577 51.785C13.2614 49.3185 11.9606 46.7054 11.0468 43.9113C10.3735 41.8501 9.95439 39.7328 9.82156 37.5606C9.62345 34.3485 10.0975 31.243 11.2781 28.2543C12.1793 25.9721 13.4424 23.8949 15.0512 22.0341C17.4514 19.2595 20.2786 17.0586 23.6819 15.6353C23.8411 15.5688 23.9945 15.4852 24.1502 15.4108C24.1411 15.3868 24.1319 15.3639 24.1216 15.3387C23.8926 15.3913 23.6578 15.436 23.43 15.4967C22.2391 15.8173 21.0344 16.0944 19.8641 16.4746C17.4182 17.2693 15.1772 18.4728 13.1561 20.0657C9.91087 22.6227 7.42943 25.7385 6.15379 29.7303C5.61559 31.4114 5.33733 33.1279 5.31901 34.8902C5.29267 37.1529 5.71407 39.3389 6.39999 41.4883C7.0504 43.5254 7.90351 45.4686 8.9215 47.3432C10.2544 49.796 11.8427 52.0782 13.542 54.2871C15.4005 56.7021 17.4445 58.9557 19.5 61.1978C19.7095 61.4245 19.9156 61.6547 20.1229 61.8826C20.0233 61.8837 19.958 61.8494 19.9042 61.8024C18.4511 60.5714 16.9773 59.3656 15.5551 58.0991C14.1042 56.8086 12.6912 55.4723 11.2861 54.1325C9.41733 52.3461 7.60807 50.5037 6.0118 48.4608C3.91855 45.7801 2.40701 42.8154 1.61803 39.5038C0.990515 36.8632 0.934405 34.1894 1.39932 31.5201C1.81728 29.1303 2.6429 26.8744 3.83953 24.7594C5.61673 21.615 8.04779 19.0648 10.9781 16.9762C13.1973 15.3959 15.6089 14.1947 18.2266 13.4298C20.8031 12.6763 23.4346 12.2446 26.1244 12.2847C29.9651 12.3431 33.5653 11.4133 36.9914 9.72766C37.4392 9.5078 37.8777 9.27191 38.3965 9.00281C38.061 9.39558 37.7667 9.71735 37.4987 10.0586C35.7055 12.3454 33.5561 14.2382 31.0529 15.6948C29.4063 16.6544 27.6852 17.4938 25.979 18.3514C23.4769 19.6099 21.1547 21.11 19.1919 23.138C16.9876 25.4179 15.4165 28.0654 14.4879 31.0896C13.8077 33.3111 13.621 35.5921 13.8042 37.9041C14.0676 41.2455 15.1371 44.343 16.6819 47.2905C18.4728 50.7052 20.7962 53.742 23.4174 56.5475C24.9129 58.1484 26.5092 59.6531 28.0619 61.1989C28.0997 61.2379 28.157 61.2619 28.268 61.3306C28.2131 61.2299 28.1993 61.1955 28.1799 61.1657C27.0817 59.5202 25.932 57.9045 24.8968 56.22C23.5067 53.9573 22.2173 51.6339 20.8535 49.354C20.5913 48.9143 20.6176 48.581 20.8237 48.1367C21.6677 46.3229 22.4784 44.4965 23.1116 42.5921C23.7678 40.6226 24.156 38.6186 24.109 36.538C24.1079 36.4464 24.117 36.3548 24.1228 36.2551C24.4629 36.3971 24.772 36.5437 25.0927 36.6571C25.7328 36.8838 26.3889 37.0017 27.0657 36.8403C27.5878 36.7166 28.0333 36.4693 28.2795 35.9677C28.4971 35.5291 28.2852 35.181 27.8031 35.1501C27.6508 35.141 27.4951 35.1329 27.3439 35.1421C26.5469 35.1959 25.8908 34.8822 25.3068 34.376C24.3861 33.5767 23.7403 32.5771 23.2296 31.4846C23.178 31.3759 23.1826 31.1869 23.2445 31.0873C23.7483 30.2788 24.3655 29.5643 25.0961 28.9482C26.1851 28.0264 27.4275 27.3531 28.7009 26.7302C30.777 25.7179 32.766 24.5705 34.5615 23.099C37.7323 20.4997 40.1611 17.3426 41.8192 13.5935C42.0643 13.0393 42.3001 12.4828 42.5498 11.9022C42.662 12.0156 42.7502 12.1106 42.8429 12.1999C43.7808 13.1046 44.5423 14.142 45.1434 15.2963C46.5405 17.9781 46.9057 20.8042 46.3275 23.7655C46.213 24.3552 46.0973 24.953 46.0675 25.5519C45.9988 26.9546 46.4328 28.2509 47.026 29.4979C47.7291 30.9796 48.7677 32.2141 49.9174 33.3615C50.3663 33.8081 50.4407 34.0313 49.93 34.6314C49.4376 35.2108 48.7677 35.552 48.1104 35.9093C47.8882 36.0307 47.6443 36.207 47.5356 36.4235C47.3077 36.8758 47.3878 37.3304 47.7337 37.7243C47.9272 37.9476 48.1425 38.1617 48.2856 38.4148C48.4883 38.7801 48.3005 39.087 47.902 39.1832C46.8828 39.4305 45.8648 39.6893 44.8491 39.955C44.6362 40.0099 44.4369 40.1153 44.2319 40.1966C44.3419 40.3077 44.4426 40.3569 44.5491 40.3867C45.2568 40.5813 45.9725 40.7554 46.6721 40.9753C46.9252 41.0543 47.1897 41.1986 47.3718 41.3864C47.7142 41.7413 47.4897 42.3047 47.0077 42.3883C46.884 42.4089 46.7603 42.425 46.6389 42.4513C46.1454 42.5555 45.8557 42.9116 45.811 43.4098C45.7584 44.0006 45.9336 44.5457 46.0904 45.0988C46.4202 46.2759 46.0801 47.1531 45.0358 47.7921C44.2846 48.2535 43.459 48.3039 42.6208 48.1677C40.4199 47.8058 38.2453 47.3226 36.1338 46.5954C34.8593 46.1569 33.6283 45.6141 32.5416 44.7885C30.0189 42.8635 28.7204 40.3443 28.82 37.1437C28.8211 37.083 28.812 37.0235 28.8085 36.9525C28.765 36.9708 28.741 36.972 28.7341 36.9846C28.6448 37.1426 28.5589 37.3029 28.4707 37.4621C27.4207 39.3538 27.4207 41.2741 28.3413 43.2071C29.002 44.5972 30.0109 45.7011 31.2739 46.5611C31.9564 47.0271 32.6858 47.4245 33.4828 47.9043C33.3729 47.9787 33.2527 48.0417 33.1565 48.1287C30.8193 50.2495 29.5494 52.8775 29.5208 56.0414C29.4841 59.8374 30.7174 63.133 33.0362 65.974H36.1452C35.8887 65.7118 35.6311 65.4496 35.3871 65.1759C33.0901 62.5925 31.8396 59.605 31.9278 56.109C31.9747 54.2585 32.3893 52.5122 33.4302 50.9514C34.005 50.0914 34.6806 49.3311 35.6379 48.8742C35.741 48.8238 35.8784 48.7883 35.9872 48.8101C36.2563 48.8662 36.5174 48.9589 36.7819 49.0356C36.7784 49.086 36.7842 49.1181 36.7739 49.1399C36.6284 49.4193 36.4807 49.6975 36.3353 49.9769C35.5246 51.5262 34.8535 53.1145 34.7619 54.8974C34.6531 56.9998 35.149 58.9385 36.2986 60.702C37.1666 62.0337 39.4683 64.5598 41.2844 65.974H52.5053V26.2515C52.5053 19.003 49.567 12.4393 44.8159 7.68937ZM40.1725 10.8453C40.0626 11.2884 39.9756 11.7453 39.8004 12.161C37.5835 17.393 33.831 21.1947 28.8749 23.8754C27.573 24.5797 26.2423 25.2427 25.0056 26.05C22.5494 27.6554 20.8684 29.9158 19.7347 32.6126C18.3835 35.8269 18.1236 39.1774 18.4396 42.6013C18.4866 43.1109 18.6434 43.6101 18.7522 44.1151C18.7683 44.193 18.7877 44.2697 18.806 44.3453C18.7808 44.3533 18.7568 44.3636 18.7328 44.3728C18.6698 44.2525 18.5965 44.1346 18.5495 44.0086C17.8854 42.2589 17.5304 40.4428 17.4537 38.5751C17.3861 36.8861 17.5029 35.2097 17.8911 33.5573C18.3308 31.6793 19.0797 29.9365 20.1241 28.3184C21.6894 25.8874 23.7758 23.975 26.1576 22.3811C28.0573 21.1111 30.0223 19.942 31.9209 18.6721C34.4401 16.9853 36.6708 14.9665 38.5579 12.5847C39.0251 11.9938 39.4339 11.356 39.8737 10.7445C39.9275 10.6701 40.0168 10.6231 40.0889 10.5624C40.1199 10.6575 40.1931 10.7628 40.1725 10.8453ZM44.7587 9.93378C42.7673 8.88944 40.6535 8.18406 38.4709 7.6722C36.5872 7.23133 34.6829 6.90383 32.7591 6.70115C30.0223 6.41487 27.2936 6.46297 24.5659 6.80077C21.9448 7.12598 19.3923 7.74205 16.9246 8.69249C14.8497 9.49177 12.8801 10.4995 11.0182 11.719C9.84789 12.4839 8.7005 13.2775 7.6951 14.2588C7.67105 14.2806 7.63555 14.292 7.60693 14.3081C7.58975 14.2943 7.57486 14.2806 7.55998 14.2669C7.6367 14.1672 7.70998 14.0653 7.79014 13.968C9.73682 11.64 11.9526 9.61086 14.5188 7.98367C16.7586 6.56259 19.1484 5.48047 21.7089 4.75905C24.6106 3.94488 27.5569 3.66662 30.5468 3.90595C32.9172 4.09375 35.1982 4.68462 37.414 5.55719C39.7145 6.46526 41.8444 7.66991 43.8529 9.10129C44.2182 9.36123 44.5617 9.65094 44.8904 9.97386C44.8468 9.96241 44.7999 9.95439 44.7587 9.93378Z" fill="white"/>
<path d="M45.0333 24.4479C44.6874 24.7972 44.3519 24.8934 43.9511 24.6792C43.0923 24.2178 42.1842 24.2315 41.2636 24.3529C40.0887 24.5063 38.9768 24.8876 37.889 25.3411C37.7057 25.419 37.534 25.5243 37.3187 25.6377C37.3393 25.5552 37.3359 25.5106 37.3588 25.4865C38.0745 24.6815 38.7203 23.7986 39.6673 23.2295C41.0128 22.4199 42.4591 22.1589 43.9958 22.4978C44.5157 22.6123 44.9554 22.8768 45.2005 23.383C45.3676 23.7299 45.2921 24.1845 45.0333 24.4479Z" fill="white"/>
<path d="M44.6918 29.8998C44.5647 30.3452 44.2956 30.5594 43.825 30.596C43.2077 30.6441 42.6535 30.4277 42.1405 30.1322C40.8271 29.3742 39.5308 28.584 38.2277 27.8111C38.0124 27.6828 37.788 27.5683 37.5681 27.4481C37.5784 27.4218 37.5887 27.3943 37.599 27.3679C38.5529 27.4928 39.5079 27.6187 40.4618 27.7413C41.4569 27.8695 42.452 28.0184 43.4482 28.1146C44.2899 28.197 44.417 28.0607 44.496 27.2065C44.512 27.0175 44.5372 26.8309 44.5601 26.6431C44.5887 26.6408 44.6162 26.6385 44.6437 26.6362C44.6803 26.8881 44.725 27.1401 44.7502 27.3943C44.8338 28.2314 44.9277 29.0696 44.6918 29.8998Z" fill="white"/>
</g>
<g id="Vector_2">
<path fill-rule="evenodd" clip-rule="evenodd" d="M98.3488 25.0515C100.088 25.0515 101.558 25.6749 102.749 26.9183C103.955 28.1595 104.56 29.645 104.56 31.3659C104.56 33.1036 103.955 34.5899 102.748 35.8146C101.54 37.0397 100.071 37.6545 98.3488 37.6545C96.5753 37.6545 95.1361 37.0289 94.0459 35.7791V43.6881H91.8789V25.3881H94.0459V26.9317C95.149 25.6792 96.5878 25.0515 98.3488 25.0515ZM93.8686 43.5108H92.0562L93.8688 43.5111V35.2764L93.8686 35.2761V43.5108ZM98.8129 37.4614C98.6604 37.4719 98.5057 37.4772 98.3488 37.4772C98.5581 37.4772 98.7635 37.468 98.965 37.4494L98.8129 37.4614ZM100.127 37.226C99.8946 37.2957 99.6563 37.3511 99.4118 37.3918C99.7053 37.343 99.9899 37.2731 100.266 37.1824L100.127 37.226ZM101.195 36.7791C101.025 36.8722 100.851 36.9562 100.673 37.0306C100.896 36.9376 101.112 36.8299 101.322 36.7078L101.195 36.7791ZM101.815 36.3867C101.775 36.4157 101.735 36.4444 101.694 36.4723C101.775 36.4165 101.856 36.3581 101.935 36.2976L101.815 36.3867ZM97.4623 35.8109C97.4669 35.8116 97.4716 35.8122 97.4763 35.8129C97.4345 35.8065 97.393 35.7997 97.3517 35.7923L97.4623 35.8109ZM98.2712 27.0111C97.0213 27.0111 95.9888 27.4342 95.1607 28.2789C94.3492 29.1069 93.9425 30.1318 93.9425 31.3659C93.9425 32.6165 94.3574 33.6492 95.1848 34.4769C96.0127 35.288 97.0375 35.6946 98.2712 35.6946C99.4486 35.6946 100.41 35.2743 101.169 34.4326L101.17 34.4317L101.171 34.4311C101.951 33.5847 102.341 32.5663 102.341 31.3659C102.341 30.1475 101.95 29.1208 101.171 28.2749L101.17 28.274L101.169 28.2734C100.41 27.4316 99.4487 27.0111 98.2712 27.0111ZM96.3635 35.493C96.4777 35.5431 96.5942 35.5885 96.7132 35.6287L96.6113 35.5929C96.5274 35.5622 96.4449 35.5287 96.3635 35.493ZM94.0459 35.5041C94.0507 35.5101 94.0559 35.5159 94.0608 35.5219C94.0376 35.4936 94.0146 35.4651 93.9917 35.4363C94.0097 35.459 94.0276 35.4818 94.0459 35.5041ZM95.1412 34.6809C95.208 34.7433 95.2763 34.803 95.3455 34.8605C95.248 34.7794 95.1526 34.6935 95.0599 34.6027L95.1412 34.6809ZM103.825 33.9831C103.722 34.2035 103.605 34.4178 103.473 34.6259L103.55 34.5004C103.601 34.4161 103.649 34.3309 103.695 34.2446C103.741 34.1585 103.784 34.0713 103.825 33.9831ZM104.092 29.4401C104.286 30.0435 104.382 30.6855 104.382 31.3659C104.382 32.106 104.27 32.7983 104.045 33.4426L104.092 33.304C104.167 33.0714 104.227 32.8327 104.272 32.5878C104.282 32.5389 104.29 32.4897 104.298 32.4403C104.354 32.0942 104.382 31.736 104.382 31.3659C104.382 30.8425 104.325 30.3419 104.211 29.8641C104.199 29.8163 104.187 29.7687 104.175 29.7214C104.137 29.5795 104.093 29.4396 104.045 29.3018L104.092 29.4401ZM94.1304 33.2467C94.1341 33.2554 94.1383 33.264 94.1421 33.2727C94.1237 33.2308 94.1059 33.1887 94.0888 33.1461L94.1304 33.2467ZM93.7651 31.3659C93.7652 31.8514 93.8259 32.3065 93.9473 32.7314C93.8664 32.4482 93.8125 32.1515 93.7855 31.8414C93.7754 31.725 93.7691 31.6067 93.7666 31.4865C93.7657 31.4465 93.7651 31.4063 93.7651 31.3659ZM93.9436 30.0159C93.8841 30.2263 93.8396 30.444 93.8098 30.669C93.8247 30.5565 93.8434 30.4458 93.8657 30.337C93.8805 30.2644 93.8971 30.1928 93.9152 30.1219C93.9243 30.0864 93.9337 30.0509 93.9436 30.0159ZM96.7997 27.052C96.1351 27.2644 95.5463 27.6318 95.0338 28.1546C94.558 28.6401 94.2162 29.1913 94.008 29.8079L94.0441 29.7059C94.0937 29.5705 94.1498 29.4382 94.2126 29.3092C94.2439 29.2448 94.277 29.1812 94.3117 29.1184C94.5025 28.7728 94.7433 28.4516 95.0341 28.1548C95.3039 27.8797 95.5947 27.6474 95.9066 27.4582C95.9378 27.4393 95.9692 27.421 96.0008 27.4029C96.0641 27.3668 96.1281 27.3325 96.193 27.2998C96.2255 27.2835 96.2581 27.2674 96.291 27.252C96.4883 27.1591 96.693 27.0816 96.9054 27.0197L96.7997 27.052ZM103.624 28.37C103.648 28.4128 103.672 28.4558 103.695 28.4991C103.649 28.4127 103.601 28.3272 103.55 28.2425L103.624 28.37ZM101.518 28.4075C101.521 28.4107 101.523 28.414 101.526 28.4172C101.501 28.3853 101.475 28.3536 101.448 28.3221L101.518 28.4075ZM102.621 27.0411C102.585 27.0034 102.549 26.9663 102.512 26.9297L102.621 27.0411ZM94.0459 27.2047C94.0352 27.2176 94.0246 27.2306 94.0141 27.2437C94.0291 27.2252 94.0442 27.2069 94.0593 27.1887C94.0549 27.194 94.0503 27.1993 94.0459 27.2047ZM98.15 26.8352C97.7898 26.8429 97.4467 26.8856 97.1206 26.9629C97.4829 26.877 97.8664 26.8341 98.2709 26.834L98.15 26.8352ZM101.943 26.4253C102.061 26.5173 102.176 26.6146 102.289 26.7172L102.175 26.6163C102.099 26.5503 102.021 26.4866 101.943 26.4253ZM101.582 26.1649C101.609 26.1826 101.635 26.2009 101.661 26.219C101.594 26.173 101.527 26.1281 101.459 26.0853L101.582 26.1649ZM100.278 25.5276C100.462 25.589 100.643 25.6598 100.819 25.7401L100.686 25.6817C100.552 25.625 100.416 25.5736 100.278 25.5276Z" fill="white"/>
<path fill-rule="evenodd" clip-rule="evenodd" d="M83.507 25.0515C85.2112 25.0515 86.6312 25.6572 87.7535 26.8681C88.8905 28.0588 89.459 29.5098 89.459 31.2103C89.459 31.4772 89.4411 31.7523 89.4057 32.0353L89.3863 32.1903H79.4618C79.611 33.1623 80.0644 33.9712 80.8256 34.6236C81.6391 35.3209 82.5821 35.6688 83.6623 35.6688C84.3614 35.6688 85.072 35.5189 85.7951 35.2163L85.7957 35.216L85.7966 35.2157C86.5374 34.9126 87.1651 34.5101 87.6825 34.0095L87.8312 33.8657L88.9686 35.4772L88.8632 35.5826C87.4813 36.9646 85.752 37.6545 83.6883 37.6545C81.9004 37.6545 80.3632 37.0507 79.0866 35.845C77.8083 34.6376 77.1666 33.1495 77.1666 31.3917C77.1666 29.6357 77.7897 28.1401 79.0319 26.9154C80.2731 25.6745 81.7679 25.0515 83.507 25.0515ZM83.8765 37.4752C83.8141 37.4765 83.7514 37.4772 83.6883 37.4772C83.8145 37.4772 83.9394 37.4747 84.063 37.4694L83.8765 37.4752ZM86.7771 36.8381C86.213 37.0984 85.6092 37.2794 84.9656 37.3806C85.6677 37.2702 86.3225 37.0649 86.93 36.7651L86.7771 36.8381ZM88.7378 35.4572C88.4432 35.7517 88.1327 36.0142 87.806 36.2443C88.1327 36.0142 88.4435 35.752 88.738 35.4574L88.7378 35.4572ZM79.6861 36.1292C79.7031 36.1425 79.7204 36.1553 79.7374 36.1684C79.6793 36.1236 79.6215 36.078 79.5644 36.0309L79.6861 36.1292ZM79.2599 32.0132C79.2731 32.1336 79.2908 32.2517 79.3126 32.3676C79.3016 32.3091 79.2916 32.2499 79.2828 32.1903C79.2742 32.1318 79.2664 32.0728 79.2599 32.0132ZM79.3917 30.0754C79.3617 30.1841 79.3347 30.2948 79.3117 30.4077C79.3239 30.3481 79.3372 30.2891 79.3513 30.2307C79.3639 30.1785 79.3775 30.1267 79.3917 30.0754ZM83.507 27.0371C82.5134 27.0371 81.6485 27.3587 80.9041 28.0039C80.2117 28.6039 79.7553 29.3446 79.5334 30.2307H87.2265C87.0232 29.3245 86.6056 28.5833 85.9762 27.9999L85.9744 27.9982C85.3011 27.3577 84.4822 27.0371 83.507 27.0371ZM88.1875 27.6665C88.3176 27.8476 88.4358 28.0342 88.5427 28.2259C88.482 28.1169 88.4179 28.0095 88.3496 27.9039C88.3237 27.8638 88.2973 27.824 88.2703 27.7845C88.2163 27.7053 88.1602 27.6271 88.1019 27.5499L88.1875 27.6665ZM83.1246 26.8756C82.2465 26.9492 81.4676 27.2807 80.7878 27.8698C81.3704 27.3649 82.0262 27.0494 82.7545 26.9231C82.8152 26.9126 82.8764 26.9032 82.9381 26.8953C83.0615 26.8796 83.1868 26.8691 83.3142 26.8638L83.1246 26.8756ZM83.8817 26.8759C83.9362 26.8805 83.9902 26.8863 84.0438 26.8931C83.93 26.8787 83.8141 26.8688 83.6961 26.8638L83.8817 26.8759ZM86.6393 26.1383C86.9433 26.3439 87.2301 26.5846 87.5003 26.8598C87.4034 26.7611 87.3046 26.6666 87.2033 26.5768C87.1308 26.5126 87.0574 26.4505 86.9827 26.3909C86.8708 26.3015 86.7562 26.2174 86.6393 26.1383ZM84.409 25.2904C84.6998 25.3317 84.9807 25.3934 85.2514 25.476C84.9356 25.3797 84.6061 25.3116 84.2629 25.2715L84.409 25.2904ZM83.5067 25.2285C83.7139 25.2285 83.9168 25.2377 84.1151 25.256L83.9656 25.244C83.8152 25.2337 83.6621 25.2285 83.5067 25.2285ZM89.2528 31.8076C89.2722 31.6037 89.2817 31.4045 89.2817 31.2103C89.2817 31.0032 89.2732 30.8001 89.2559 30.6008C89.2516 30.5509 89.2467 30.5012 89.2413 30.4518C89.1994 30.0683 89.1245 29.6996 89.0173 29.3456C89.1933 29.9273 89.2817 30.5489 89.2817 31.2103C89.2817 31.4693 89.2644 31.737 89.2299 32.0132L89.2528 31.8076Z" fill="white"/>
<path fill-rule="evenodd" clip-rule="evenodd" d="M75.3164 37.3437H73.0976V20.8998H64.2846V37.3437H62.0661V18.8623H75.3164V37.3437ZM64.1073 37.1664L64.1076 20.7228H73.2746L64.1073 20.7225V37.1664Z" fill="white"/>
<path fill-rule="evenodd" clip-rule="evenodd" d="M108.852 35.3581H114.377V25.3881H116.544L116.518 35.3581H122.094V25.3881H124.235V37.3437H106.712V25.3881H108.852V35.3581Z" fill="white"/>
<path d="M129.715 37.3437H127.548V25.3881H129.715V37.3437Z" fill="white"/>
<path fill-rule="evenodd" clip-rule="evenodd" d="M128.632 19.7168C129.019 19.7168 129.351 19.8447 129.612 20.1055C129.872 20.3662 130 20.6975 130 21.0851C130 21.458 129.871 21.7859 129.616 22.0602L129.614 22.0627L129.612 22.065C129.351 22.3258 129.019 22.4535 128.632 22.4535C128.269 22.4534 127.949 22.3102 127.678 22.039C127.407 21.7677 127.263 21.4477 127.263 21.0851C127.263 20.713 127.392 20.392 127.649 20.1335C127.909 19.8555 128.241 19.7168 128.632 19.7168ZM129.208 22.145C129.04 22.2325 128.847 22.2764 128.632 22.2764C128.696 22.2764 128.759 22.2726 128.82 22.2647C128.84 22.262 128.86 22.2587 128.879 22.2552C129.017 22.2307 129.143 22.1847 129.258 22.1172L129.208 22.145ZM128.405 22.2538C128.421 22.257 128.436 22.2593 128.452 22.2618C128.418 22.2563 128.384 22.2496 128.35 22.2409L128.405 22.2538ZM128.244 22.2071C128.257 22.212 128.27 22.2162 128.283 22.2206C128.252 22.2103 128.221 22.1988 128.191 22.1856L128.244 22.2071ZM129.818 21.206C129.793 21.4836 129.683 21.7281 129.486 21.9396C129.43 21.9957 129.37 22.045 129.307 22.0871L129.354 22.0541C129.4 22.02 129.444 21.9816 129.486 21.9396C129.57 21.8489 129.639 21.7525 129.692 21.6497C129.718 21.5983 129.74 21.5454 129.759 21.491C129.789 21.4003 129.809 21.3051 129.818 21.206ZM129.823 21.0851C129.823 21.1056 129.822 21.126 129.822 21.1461L129.823 21.0851ZM129.527 20.2733C129.685 20.4473 129.779 20.6552 129.811 20.8972L129.802 20.8376C129.791 20.7785 129.777 20.7215 129.759 20.6666C129.74 20.6118 129.718 20.5591 129.692 20.5085C129.665 20.4579 129.635 20.4096 129.601 20.3633C129.578 20.3324 129.553 20.3023 129.527 20.2733Z" fill="white"/>
<path d="M73.6209 43.8348V61.9761H71.7549V45.5193H66.5457L65.9756 49.4586C65.3882 53.5534 64.5588 56.7065 63.4876 58.918C62.4337 61.1122 60.9306 62.2094 58.9782 62.2094V60.5248C59.4793 60.4557 59.9544 60.2311 60.4036 59.851C60.8528 59.4536 61.2329 59.0044 61.5439 58.5034C61.8722 58.0023 62.1746 57.3544 62.451 56.5596C62.7447 55.7649 62.9693 55.0738 63.1248 54.4863C63.2976 53.8989 63.4617 53.156 63.6172 52.2575C63.79 51.3591 63.9023 50.7285 63.9541 50.3657C64.0232 50.0028 64.101 49.4932 64.1874 48.8366L64.8612 43.8348H73.6209Z" fill="white"/>
<path d="M87.7703 56.0154C87.7703 56.2746 87.753 56.5424 87.7185 56.8188H77.7407C77.8617 57.9246 78.3454 58.8403 79.192 59.5659C80.0386 60.2916 81.0235 60.6544 82.1465 60.6544C82.8721 60.6544 83.6064 60.4989 84.3494 60.1879C85.1096 59.8769 85.7575 59.4623 86.2931 58.9439L87.2261 60.2657C85.8784 61.6133 84.1939 62.2871 82.1724 62.2871C80.4274 62.2871 78.9329 61.6997 77.6889 60.5248C76.4449 59.3499 75.8229 57.9073 75.8229 56.1968C75.8229 54.4863 76.4276 53.035 77.6371 51.8429C78.8465 50.6335 80.2978 50.0288 81.991 50.0288C83.6496 50.0288 85.0232 50.6162 86.1117 51.7911C87.2174 52.9486 87.7703 54.3568 87.7703 56.0154ZM77.7926 55.212H85.9303C85.7402 54.1753 85.291 53.3288 84.5826 52.6722C83.8742 51.9984 83.0104 51.6615 81.991 51.6615C80.9543 51.6615 80.0473 51.9984 79.2698 52.6722C78.4923 53.346 77.9999 54.1926 77.7926 55.212Z" fill="white"/>
<path d="M101.056 50.3657V60.3952H102.896V65.7081H101.082V62.028H91.0007V65.7081H89.1866V60.473C89.9468 60.3866 90.5256 60.0756 90.923 59.54C91.3376 58.9871 91.6745 58.2701 91.9337 57.389C92.1929 56.5078 92.4434 55.1515 92.6853 53.3201L93.074 50.3657H101.056ZM99.2421 51.9984H94.7067L94.4735 53.7348C94.3353 54.7196 94.2143 55.5057 94.1107 56.0931C94.007 56.6633 93.8169 57.389 93.5405 58.2701C93.2641 59.1513 92.9271 59.8596 92.5298 60.3952H99.2421V51.9984Z" fill="white"/>
<path d="M107.646 50.3657V61.9761H105.832V50.3657H107.646ZM107.931 45.8822C107.931 46.2104 107.819 46.4955 107.594 46.7374C107.37 46.962 107.085 47.0743 106.739 47.0743C106.428 47.0743 106.152 46.9534 105.91 46.7115C105.668 46.4696 105.547 46.1932 105.547 45.8822C105.547 45.5539 105.659 45.2775 105.884 45.0528C106.109 44.811 106.394 44.69 106.739 44.69C107.085 44.69 107.37 44.8023 107.594 45.0269C107.819 45.2515 107.931 45.5366 107.931 45.8822Z" fill="white"/>
</g>
</g>
</svg>
